PathFileType	4	(X/Y/Z)	C:\ABL_Data\ExoAging\Piloting\Dec 6 2019\Generated_files\static_2.trc
DataRate	CameraRate	NumFrames	NumMarkers	Units	OrigDataRate	OrigDataStartFrame	OrigNumFrames
100.00	100.00	       16	20	mm	100.00	143	       568
Frame#	Time	R.Acromium			L.Acromium			Sternum			R.ASIS			R.PSIS			S2			L.PSIS			L.ASIS			R.Knee			R.Ankle			L.Knee			L.Ankle			R.MKnee			R.MAnkle			L.MKnee			L.MAnkle			C7			T12			Clav			R.Back			
		X1	Y1	Z1	X2	Y2	Z2	X3	Y3	Z3	X4	Y4	Z4	X5	Y5	Z5	X6	Y6	Z6	X7	Y7	Z7	X8	Y8	Z8	X9	Y9	Z9	X10	Y10	Z10	X11	Y11	Z11	X12	Y12	Z12	X13	Y13	Z13	X14	Y14	Z14	X15	Y15	Z15	X16	Y16	Z16	X17	Y17	Z17	X18	Y18	Z18	X19	Y19	Z19	X20	Y20	Z20	

143	1.420	837.82263	385.54102	1497.30640	845.06946	791.23657	1484.82385				912.95801	448.80768	1005.44427	729.33649	527.08801	1046.51135	711.13647	580.67987	1022.15784	733.82074	630.07281	1049.91370	919.20508	708.01404	1018.03198	818.68604	382.86172	512.35962	759.14569	378.49847	86.45788	819.20123	764.77313	509.51648	766.80481	775.39813	78.82483	840.59906	495.06937	489.39178	803.79437	458.49319	92.11174	829.78870	651.60767	486.80798	783.80194	685.31860	93.50825	754.69519	574.72504	1555.22778	734.51660	581.65924	1187.31445	916.98969	580.38214	1461.81335	692.98169	458.73477	1394.03320	
144	1.430	837.82050	385.67035	1497.26904	845.02466	791.24060	1484.81360				912.95807	448.82602	1005.43317	729.32715	527.09998	1046.48108	711.12915	580.70923	1022.12872	733.76898	630.11792	1049.90540	919.19800	708.02686	1018.02899	818.73694	382.84192	512.35425	759.11914	378.50650	86.46178	819.18109	764.79913	509.51074	766.79980	775.39423	78.83241	840.57025	495.06577	489.37909	803.78473	458.51099	92.07548	829.74878	651.65729	486.78088	783.80823	685.31805	93.50169	754.64648	574.67560	1555.20801	734.50385	581.69745	1187.27979	916.93323	580.36163	1461.83997	692.96497	458.74997	1394.00623	
145	1.440	837.79926	385.73837	1497.28516	844.75262	791.65503	1485.19592				912.96741	448.87894	1005.46710	729.31799	527.12213	1046.48010	711.07263	580.75818	1022.14319	733.77173	630.13062	1049.92126	919.20221	708.06854	1018.05786	818.75012	382.86462	512.38245	759.14246	378.51175	86.46297	819.13348	764.87915	509.52243	766.78967	775.44287	78.81721	840.62122	495.07593	489.36853	803.76447	458.50681	92.09110	829.76447	651.67657	486.79337	783.82361	685.32288	93.50433	754.59088	574.84167	1555.23706	734.43158	581.78394	1187.28149	916.88013	580.41553	1461.87708	692.93652	458.78458	1394.02295	
146	1.450	837.77722	385.73151	1497.35352	844.68341	791.69702	1485.19983				912.92950	448.88312	1005.44543	729.31891	527.15387	1046.48621	711.07074	580.77649	1022.14819	733.76984	630.18610	1049.91882	919.18732	708.09839	1018.06140	818.75769	382.91519	512.36102	759.14490	378.51266	86.47303	819.15430	764.81067	509.49341	766.74420	775.46021	78.84269	840.63989	495.11444	489.37817	803.79358	458.49771	92.05148	829.77570	651.65051	486.80975	783.79480	685.33374	93.49263	754.57190	574.89093	1555.23865	734.46167	581.68201	1187.23950	916.84247	580.37360	1461.89746	692.91290	458.77753	1394.01880	
147	1.460	837.73969	385.73694	1497.28662	844.83197	791.28589	1484.85205				912.91425	448.93280	1005.40808	729.29865	527.16486	1046.49561	711.05585	580.85779	1022.18066	733.75562	630.21454	1049.91418	919.18207	708.11078	1018.08124	818.70831	382.94421	512.39117	759.13885	378.51202	86.48228	819.14093	764.87506	509.53137	766.75549	775.48486	78.85936	840.69293	495.10178	489.36139	803.80377	458.49445	92.05830	829.76343	651.65887	486.80930	783.79437	685.33264	93.51958	754.54761	574.82806	1555.26086	734.39935	581.77734	1187.26575	916.79114	580.44452	1461.90771	692.89844	458.78131	1394.00513	
148	1.470	837.66626	385.65079	1497.23682	844.56989	791.68286	1485.24158				912.89130	448.94818	1005.44586	729.30347	527.16278	1046.50659	711.06445	580.83685	1022.18964	733.74109	630.22913	1049.93164	919.17999	708.11377	1018.11945	818.72119	382.95605	512.41418	759.13611	378.49673	86.47037	819.15167	764.86975	509.53241	766.72772	775.43744	78.84698	840.68658	495.10754	489.37964	803.79401	458.49292	92.08437	829.70868	651.78979	486.74643	783.77307	685.34583	93.52760	754.51434	574.74512	1555.26123	734.38342	581.78253	1187.27515	916.73370	580.45282	1461.88879	692.84937	458.79230	1393.98779	
149	1.480	837.64166	385.74692	1497.24341	844.50830	791.70514	1485.22327				912.90228	448.99182	1005.43939	729.30115	527.20331	1046.51379	711.05963	580.85608	1022.18195	733.72913	630.28699	1049.92151	919.16010	708.15625	1018.10803	818.75464	382.91080	512.37585	759.14240	378.50803	86.48483	819.11981	764.91748	509.54620	766.74548	775.43628	78.84030	840.67126	495.14297	489.37234	803.74591	458.51996	92.11236	829.70001	651.79645	486.76273	783.76367	685.32477	93.53938	754.47449	574.83380	1555.26074	734.37085	581.76569	1187.22559	916.68744	580.52118	1461.88806	692.83160	458.79886	1393.98169	
150	1.490	837.69836	385.75937	1497.26550	844.44128	791.70612	1485.20325				912.89392	448.99921	1005.39899	729.29877	527.24554	1046.47668	711.03973	580.91235	1022.14551	733.73376	630.30951	1049.91443	919.15570	708.17627	1018.10712	818.71808	382.97647	512.34973	759.13800	378.50522	86.49194	819.11987	764.89880	509.50259	766.73322	775.49121	78.87067	840.62476	495.17722	489.38934	803.78253	458.48959	92.05460	829.68463	651.74139	486.77527	783.76947	685.33325	93.53249	754.43994	574.92346	1555.22314	734.34760	581.82233	1187.20740	916.62982	580.49231	1461.81018	692.79999	458.80914	1393.95825	
151	1.500	837.63239	385.68121	1497.14929	844.46643	791.42688	1484.79163				912.87909	449.04361	1005.41528	729.30902	527.23505	1046.46997	711.05457	580.91400	1022.13013	733.73859	630.33447	1049.91150	919.13013	708.21033	1018.08679	818.73077	382.98013	512.34973	759.13727	378.50729	86.50173	819.10602	764.93726	509.52762	766.74347	775.48102	78.90555	840.63928	495.18066	489.42111	803.79462	458.50421	92.07952	829.71057	651.80444	486.72476	783.77325	685.34186	93.53774	754.39990	574.83673	1555.21387	734.32483	581.84283	1187.16724	916.55450	580.58826	1461.80933	692.24005	458.70038	1394.10632	
152	1.510	837.58313	385.71045	1497.13135	844.27917	791.64673	1485.18445				912.90149	449.07898	1005.43188	729.28876	527.26990	1046.47778	711.05316	580.92761	1022.15796	733.69116	630.44403	1049.91394	919.17261	708.22467	1018.12500	818.69977	382.99930	512.35968	759.14990	378.51755	86.49728	819.09827	764.94928	509.50848	766.77130	775.41895	78.83802	840.64618	495.13446	489.35571	803.78009	458.51257	92.09422	829.69006	651.76666	486.77963	783.78888	685.34833	93.50892	754.35791	574.85284	1555.22656	734.26251	581.89258	1187.17188	916.49091	580.65302	1461.79504	692.21216	458.68723	1394.08655	
153	1.520	837.56702	385.73013	1497.12598	844.21332	791.64258	1485.20496				912.91235	449.11111	1005.43243	729.28534	527.28949	1046.47717	711.03168	580.97778	1022.17737	733.69916	630.38208	1049.93225	919.13995	708.22278	1018.06128	818.72266	382.97061	512.35303	759.14801	378.49313	86.49730	819.09857	764.93433	509.50897	766.75909	775.46259	78.81499	840.60950	495.16162	489.34717	803.79346	458.49109	92.06530	829.70917	651.83972	486.73459	783.79700	685.35205	93.51524	754.31018	574.90698	1555.25049	734.26196	581.86230	1187.14612	916.43372	580.62079	1461.81958	692.67096	458.79233	1393.90613	
154	1.530	837.52698	385.78024	1497.10632	844.27936	791.38806	1484.82092				912.91803	449.12375	1005.42365	729.29163	527.25116	1046.46753	711.02850	580.94330	1022.15637	733.68109	630.46423	1049.91345	919.20703	708.22864	1018.17078	818.73767	382.97626	512.35809	759.13409	378.48056	86.49700	819.10773	764.94946	509.52908	766.78369	775.45850	78.79862	840.60083	495.23325	489.37888	803.76294	458.49619	92.09554	829.66467	651.80585	486.79022	783.78473	685.35510	93.51064	754.29218	574.79138	1555.25635	734.26294	581.88373	1187.17700	916.40289	580.57733	1461.77454	692.62732	458.79056	1393.87927	
155	1.540	837.50092	385.71259	1497.04028	844.19391	791.33295	1484.79346				912.92389	449.13989	1005.44385	729.26965	527.28467	1046.45190	711.02734	580.96008	1022.15149	733.68695	630.40869	1049.90015	919.12170	708.20380	1018.14471	818.73376	382.98413	512.35004	759.13770	378.51172	86.46659	819.08527	764.93103	509.49515	766.78821	775.43060	78.80505	840.61981	495.22729	489.35263	803.76025	458.45892	92.05582	829.65076	651.80792	486.75412	783.77075	685.37701	93.49613	754.24023	574.87378	1555.23779	734.23517	581.87531	1187.11670	916.31842	580.56580	1461.74548	692.09534	458.70566	1394.02539	
156	1.550	837.52789	385.82047	1497.06836	844.11145	791.40839	1484.77771				912.93262	449.17258	1005.42737	729.27594	527.31891	1046.41089	711.05609	581.01086	1022.08606	733.66846	630.50299	1049.89856	919.14862	708.20087	1018.15790	818.71387	383.05087	512.38800	759.14209	378.49481	86.49242	819.07574	765.02386	509.51227	766.77722	775.45551	78.80034	840.65509	495.25183	489.33749	803.76306	458.49350	92.09148	829.65704	651.79907	486.79431	783.77411	685.37024	93.49956	754.17755	574.89990	1555.21631	734.26514	581.88092	1187.08203	916.24524	580.69196	1461.68799	692.05725	458.72073	1393.98389	
157	1.560	837.45093	385.71143	1497.00793	843.97192	791.65393	1485.16504				912.93280	449.18530	1005.41998	729.29675	527.31525	1046.39368	711.06091	581.02405	1022.08148	733.62781	630.56146	1049.87292	919.10095	708.24481	1018.11884	818.76563	383.04819	512.34869	759.14368	378.50226	86.50061	819.09088	765.01978	509.50198	766.75183	775.44354	78.85091	840.66638	495.22510	489.32349	803.79553	458.49841	92.04587	829.70190	651.78345	486.80777	783.79211	685.35651	93.50347	754.16541	574.92371	1555.19214	734.21643	581.89844	1187.06482	916.19745	580.57288	1461.65027	692.03448	458.72015	1393.96606	
158	1.570	837.36377	385.60181	1497.02075	843.91675	791.41614	1484.78625				912.92358	449.21506	1005.36932	729.25836	527.32269	1046.40820	711.03870	581.01007	1022.07428	733.63470	630.51404	1049.88208	919.07318	708.25671	1018.09692	818.82147	383.03702	512.33850	759.16931	378.50552	86.49836	819.07184	765.03430	509.49808	766.77954	775.47644	78.80724	840.65674	495.22253	489.28931	803.76691	458.49109	92.06335	829.73834	651.83075	486.79990	783.80530	685.37848	93.50294	754.12244	574.92346	1555.19214	734.18756	581.87927	1187.04700	916.13312	580.67932	1461.64319	691.98297	458.67987	1393.98035	
